<svg xmlns="http://www.w3.org/2000/svg" viewBox="0 0 1280 360" width="1280" height="360" font-family="Inter, 'DejaVu Sans', Arial, sans-serif" role="img" aria-label="Cambium — Responsible-AI Research Institute">
<defs>
<linearGradient id="bgg" x1="0" y1="0" x2="1" y2="1"><stop offset="0%" stop-color="#07231A"/><stop offset="100%" stop-color="#0A2A1F"/></linearGradient>
<linearGradient id="hexg" x1="0" y1="0" x2="1" y2="1"><stop offset="0%" stop-color="#B7F36A"/><stop offset="100%" stop-color="#16C079"/></linearGradient>
<radialGradient id="glow" cx="50%" cy="50%" r="50%"><stop offset="0%" stop-color="#B7F36A" stop-opacity="0.30"/><stop offset="100%" stop-color="#B7F36A" stop-opacity="0"/></radialGradient>
<clipPath id="card"><rect x="0" y="0" width="1280" height="360" rx="0"/></clipPath>
</defs>
<rect width="1280" height="360" fill="url(#bgg)"/>
<g clip-path="url(#card)" opacity="0.5">
<circle cx="1180" cy="300" r="70" fill="none" stroke="#16C079" stroke-width="1.4" opacity="0.05"/>
<circle cx="1180" cy="300" r="104" fill="none" stroke="#0E8E5B" stroke-width="1.4" opacity="0.07"/>
<circle cx="1180" cy="300" r="138" fill="none" stroke="#16C079" stroke-width="1.4" opacity="0.09"/>
<circle cx="1180" cy="300" r="172" fill="none" stroke="#0E8E5B" stroke-width="1.4" opacity="0.05"/>
<circle cx="1180" cy="300" r="206" fill="none" stroke="#16C079" stroke-width="1.4" opacity="0.07"/>
<circle cx="1180" cy="300" r="240" fill="none" stroke="#0E8E5B" stroke-width="1.4" opacity="0.09"/>
<circle cx="1180" cy="300" r="274" fill="none" stroke="#16C079" stroke-width="1.4" opacity="0.05"/>
<circle cx="1180" cy="300" r="308" fill="none" stroke="#0E8E5B" stroke-width="1.4" opacity="0.07"/>
<circle cx="1180" cy="300" r="342" fill="none" stroke="#16C079" stroke-width="1.4" opacity="0.09"/>
<circle cx="1180" cy="300" r="376" fill="none" stroke="#0E8E5B" stroke-width="1.4" opacity="0.05"/>
<circle cx="1180" cy="300" r="410" fill="none" stroke="#16C079" stroke-width="1.4" opacity="0.07"/>
<circle cx="1180" cy="300" r="444" fill="none" stroke="#0E8E5B" stroke-width="1.4" opacity="0.09"/>
<circle cx="1180" cy="300" r="478" fill="none" stroke="#16C079" stroke-width="1.4" opacity="0.05"/>
<circle cx="1180" cy="300" r="512" fill="none" stroke="#0E8E5B" stroke-width="1.4" opacity="0.07"/>
<circle cx="1180" cy="300" r="546" fill="none" stroke="#16C079" stroke-width="1.4" opacity="0.09"/>
<circle cx="1180" cy="300" r="580" fill="none" stroke="#0E8E5B" stroke-width="1.4" opacity="0.05"/>
<circle cx="1180" cy="300" r="614" fill="none" stroke="#16C079" stroke-width="1.4" opacity="0.07"/>
<circle cx="954" cy="218" r="3" fill="#B7F36A" opacity="0.30"/>
<circle cx="961" cy="81" r="3" fill="#B7F36A" opacity="0.30"/>
<circle cx="806" cy="366" r="3" fill="#B7F36A" opacity="0.30"/>
<circle cx="1108" cy="103" r="3" fill="#B7F36A" opacity="0.30"/>
<circle cx="790" cy="525" r="3" fill="#B7F36A" opacity="0.30"/>
</g>
<circle cx="110" cy="150" r="92" fill="url(#glow)"/>
<polygon points="110.0,92.0 160.2,121.0 160.2,179.0 110.0,208.0 59.8,179.0 59.8,121.0" fill="none" stroke="url(#hexg)" stroke-width="5" stroke-linejoin="round"/>
<polygon points="110.0,108.0 146.4,129.0 146.4,171.0 110.0,192.0 73.6,171.0 73.6,129.0" fill="#B7F36A" opacity="0.14"/>
<circle cx="110" cy="150" r="10" fill="none" stroke="#16C079" stroke-width="1.4" opacity="0.55"/>
<circle cx="110" cy="150" r="20" fill="none" stroke="#16C079" stroke-width="1.4" opacity="0.55"/>
<circle cx="110" cy="150" r="30" fill="none" stroke="#16C079" stroke-width="1.4" opacity="0.55"/>
<circle cx="110" cy="150" r="5" fill="#B7F36A"/>
<text x="200" y="128" fill="#F4F7F2" font-size="64" font-weight="800" letter-spacing="2">CAMBIUM<tspan fill="#B7F36A">.</tspan></text>
<text x="203" y="162" fill="#8AA197" font-size="17" font-weight="600" letter-spacing="6">RESPONSIBLE-AI RESEARCH INSTITUTE</text>
<line x1="200" y1="196" x2="730" y2="196" stroke="#1F4D3B" stroke-width="1.4"/>
<text x="200" y="232" fill="#16C079" font-size="25" font-weight="700">Use AI to expand scientific capacity —</text>
<text x="200" y="262" fill="#F4F7F2" font-size="25" font-weight="500">keep human judgment responsible for</text>
<text x="200" y="292" fill="#F4F7F2" font-size="25" font-weight="500">validity, ethics, and decisions.</text>
<text x="860" y="150" text-anchor="middle" fill="#B7F36A" font-size="52" font-weight="800">46</text>
<text x="860" y="176" text-anchor="middle" fill="#8AA197" font-size="13" font-weight="600" letter-spacing="1">AGENTS</text>
<text x="1005" y="150" text-anchor="middle" fill="#B7F36A" font-size="52" font-weight="800">11</text>
<text x="1005" y="176" text-anchor="middle" fill="#8AA197" font-size="13" font-weight="600" letter-spacing="1">COUNCILS</text>
<text x="1150" y="150" text-anchor="middle" fill="#B7F36A" font-size="52" font-weight="800">8</text>
<text x="1150" y="176" text-anchor="middle" fill="#8AA197" font-size="13" font-weight="600" letter-spacing="1">HUMAN GATES</text>
<line x1="800" y1="76" x2="800" y2="190" stroke="#1F4D3B" stroke-width="1.4"/>
<g font-size="14" font-weight="600">
<rect x="200" y="320" width="104" height="28" rx="14" fill="#15402F" stroke="#1F4D3B" stroke-width="1.2"/>
<text x="252" y="339" text-anchor="middle" fill="#F4F7F2">46 agents</text>
<rect x="315.8" y="320" width="120" height="28" rx="14" fill="#15402F" stroke="#1F4D3B" stroke-width="1.2"/>
<text x="376" y="339" text-anchor="middle" fill="#F4F7F2">11 councils</text>
<rect x="448.0" y="320" width="137" height="28" rx="14" fill="#15402F" stroke="#1F4D3B" stroke-width="1.2"/>
<text x="516" y="339" text-anchor="middle" fill="#F4F7F2">8 human gates</text>
<rect x="596.6" y="320" width="169" height="28" rx="14" fill="#15402F" stroke="#1F4D3B" stroke-width="1.2"/>
<text x="681" y="339" text-anchor="middle" fill="#F4F7F2">evidence contract</text>
<rect x="778.0" y="320" width="55" height="28" rx="14" fill="#B7F36A" stroke="#B7F36A" stroke-width="1.2"/>
<text x="805" y="339" text-anchor="middle" fill="#052015">MIT</text>
</g>
</svg>