<svg xmlns="http://www.w3.org/2000/svg" viewBox="0 0 1100 300" width="1100" height="300" font-family="Inter, 'DejaVu Sans', Arial, sans-serif" role="img" aria-label="Cambium research lifecycle · 8 human gates">
<defs>
<linearGradient id="bgg" x1="0" y1="0" x2="1" y2="1"><stop offset="0%" stop-color="#07231A"/><stop offset="100%" stop-color="#0A2A1F"/></linearGradient>
<linearGradient id="flow" x1="0" y1="0" x2="1" y2="0"><stop offset="0%" stop-color="#16C079"/><stop offset="100%" stop-color="#B7F36A"/></linearGradient>
</defs>
<rect width="1100" height="300" fill="url(#bgg)"/>
<text x="550.0" y="40" text-anchor="middle" fill="#F4F7F2" font-size="22" font-weight="800">The research lifecycle · 8 human gates</text>
<text x="550.0" y="62" text-anchor="middle" fill="#8AA197" font-size="13" font-weight="500">a named human signs off at every gate before work proceeds</text>
<line x1="60" y1="178" x2="1040" y2="178" stroke="url(#flow)" stroke-width="4"/>
<rect x="83.66666666666669" y="82" width="116" height="32" rx="14" fill="#15402F" stroke="#1F4D3B" stroke-width="1.2"/>
<text x="141.66666666666669" y="104" text-anchor="middle" fill="#F4F7F2" font-size="14" font-weight="700">Intake</text>
<text x="223.33333333333334" y="104" text-anchor="middle" fill="#16C079" font-size="16" font-weight="800">&#8594;</text>
<rect x="247.0" y="82" width="116" height="32" rx="14" fill="#15402F" stroke="#1F4D3B" stroke-width="1.2"/>
<text x="305.0" y="104" text-anchor="middle" fill="#F4F7F2" font-size="14" font-weight="700">Pre-Award</text>
<text x="386.6666666666667" y="104" text-anchor="middle" fill="#16C079" font-size="16" font-weight="800">&#8594;</text>
<rect x="410.33333333333337" y="82" width="116" height="32" rx="14" fill="#15402F" stroke="#1F4D3B" stroke-width="1.2"/>
<text x="468.33333333333337" y="104" text-anchor="middle" fill="#F4F7F2" font-size="14" font-weight="700">Lab</text>
<text x="550.0" y="104" text-anchor="middle" fill="#16C079" font-size="16" font-weight="800">&#8594;</text>
<rect x="573.6666666666667" y="82" width="116" height="32" rx="14" fill="#15402F" stroke="#1F4D3B" stroke-width="1.2"/>
<text x="631.6666666666667" y="104" text-anchor="middle" fill="#F4F7F2" font-size="14" font-weight="700">Verification</text>
<text x="713.3333333333334" y="104" text-anchor="middle" fill="#16C079" font-size="16" font-weight="800">&#8594;</text>
<rect x="737.0" y="82" width="116" height="32" rx="14" fill="#15402F" stroke="#1F4D3B" stroke-width="1.2"/>
<text x="795.0" y="104" text-anchor="middle" fill="#F4F7F2" font-size="14" font-weight="700">Reporting</text>
<text x="876.6666666666667" y="104" text-anchor="middle" fill="#16C079" font-size="16" font-weight="800">&#8594;</text>
<rect x="900.3333333333334" y="82" width="116" height="32" rx="14" fill="#15402F" stroke="#1F4D3B" stroke-width="1.2"/>
<text x="958.3333333333334" y="104" text-anchor="middle" fill="#F4F7F2" font-size="14" font-weight="700">Publish</text>
<circle cx="84.0" cy="178" r="4" fill="#052015" stroke="#B7F36A" stroke-width="1.5"/>
<path d="M 67.0 160 L 101.0 160 L 101.0 181.25 Q 101.0 188.9 84.0 196.55 Q 67.0 188.9 67.0 181.25 Z" fill="#B7F36A" stroke="#0B2E22" stroke-width="2" stroke-linejoin="round"/>
<text x="84.0" y="181" text-anchor="middle" fill="#052015" font-size="11" font-weight="800">G0</text>
<text x="84.0" y="222" text-anchor="middle" fill="#F4F7F2" font-size="12" font-weight="600">intake</text>
<circle cx="217.1" cy="178" r="4" fill="#052015" stroke="#B7F36A" stroke-width="1.5"/>
<path d="M 200.14285714285714 160 L 234.14285714285714 160 L 234.14285714285714 181.25 Q 234.14285714285714 188.9 217.14285714285714 196.55 Q 200.14285714285714 188.9 200.14285714285714 181.25 Z" fill="#B7F36A" stroke="#0B2E22" stroke-width="2" stroke-linejoin="round"/>
<text x="217.1" y="181" text-anchor="middle" fill="#052015" font-size="11" font-weight="800">G1</text>
<text x="217.1" y="222" text-anchor="middle" fill="#F4F7F2" font-size="12" font-weight="600">pursue</text>
<circle cx="350.3" cy="178" r="4" fill="#052015" stroke="#B7F36A" stroke-width="1.5"/>
<path d="M 333.2857142857143 160 L 367.2857142857143 160 L 367.2857142857143 181.25 Q 367.2857142857143 188.9 350.2857142857143 196.55 Q 333.2857142857143 188.9 333.2857142857143 181.25 Z" fill="#B7F36A" stroke="#0B2E22" stroke-width="2" stroke-linejoin="round"/>
<text x="350.3" y="181" text-anchor="middle" fill="#052015" font-size="11" font-weight="800">G2</text>
<text x="350.3" y="222" text-anchor="middle" fill="#F4F7F2" font-size="12" font-weight="600">approach</text>
<circle cx="483.4" cy="178" r="4" fill="#052015" stroke="#B7F36A" stroke-width="1.5"/>
<path d="M 466.42857142857144 160 L 500.42857142857144 160 L 500.42857142857144 181.25 Q 500.42857142857144 188.9 483.42857142857144 196.55 Q 466.42857142857144 188.9 466.42857142857144 181.25 Z" fill="#E0B24A" stroke="#9C7A1E" stroke-width="2" stroke-linejoin="round"/>
<text x="483.4" y="181" text-anchor="middle" fill="#052015" font-size="11" font-weight="800">G3</text>
<text x="483.4" y="222" text-anchor="middle" fill="#F4F7F2" font-size="12" font-weight="600">submit</text>
<text x="483.4" y="237" text-anchor="middle" fill="#E0B24A" font-size="9.5" font-weight="700" letter-spacing="0.5">DIRECTOR-ONLY</text>
<circle cx="616.6" cy="178" r="4" fill="#052015" stroke="#B7F36A" stroke-width="1.5"/>
<path d="M 599.5714285714286 160 L 633.5714285714286 160 L 633.5714285714286 181.25 Q 633.5714285714286 188.9 616.5714285714286 196.55 Q 599.5714285714286 188.9 599.5714285714286 181.25 Z" fill="#B7F36A" stroke="#0B2E22" stroke-width="2" stroke-linejoin="round"/>
<text x="616.6" y="181" text-anchor="middle" fill="#052015" font-size="11" font-weight="800">G3a</text>
<text x="616.6" y="222" text-anchor="middle" fill="#F4F7F2" font-size="12" font-weight="600">budget</text>
<circle cx="749.7" cy="178" r="4" fill="#052015" stroke="#B7F36A" stroke-width="1.5"/>
<path d="M 732.7142857142857 160 L 766.7142857142857 160 L 766.7142857142857 181.25 Q 766.7142857142857 188.9 749.7142857142857 196.55 Q 732.7142857142857 188.9 732.7142857142857 181.25 Z" fill="#B7F36A" stroke="#0B2E22" stroke-width="2" stroke-linejoin="round"/>
<text x="749.7" y="181" text-anchor="middle" fill="#052015" font-size="11" font-weight="800">G4</text>
<text x="749.7" y="222" text-anchor="middle" fill="#F4F7F2" font-size="12" font-weight="600">accept</text>
<circle cx="882.9" cy="178" r="4" fill="#052015" stroke="#B7F36A" stroke-width="1.5"/>
<path d="M 865.8571428571429 160 L 899.8571428571429 160 L 899.8571428571429 181.25 Q 899.8571428571429 188.9 882.8571428571429 196.55 Q 865.8571428571429 188.9 865.8571428571429 181.25 Z" fill="#B7F36A" stroke="#0B2E22" stroke-width="2" stroke-linejoin="round"/>
<text x="882.9" y="181" text-anchor="middle" fill="#052015" font-size="11" font-weight="800">G5</text>
<text x="882.9" y="222" text-anchor="middle" fill="#F4F7F2" font-size="12" font-weight="600">release</text>
<circle cx="1016.0" cy="178" r="4" fill="#052015" stroke="#B7F36A" stroke-width="1.5"/>
<path d="M 999.0 160 L 1033.0 160 L 1033.0 181.25 Q 1033.0 188.9 1016.0 196.55 Q 999.0 188.9 999.0 181.25 Z" fill="#B7F36A" stroke="#0B2E22" stroke-width="2" stroke-linejoin="round"/>
<text x="1016.0" y="181" text-anchor="middle" fill="#052015" font-size="11" font-weight="800">G6</text>
<text x="1016.0" y="222" text-anchor="middle" fill="#F4F7F2" font-size="12" font-weight="600">publish</text>
<path d="M 65 267 L 83 267 L 83 278.25 Q 83 282.3 74 286.35 Q 65 282.3 65 278.25 Z" fill="#B7F36A" stroke="#0B2E22" stroke-width="2" stroke-linejoin="round"/>
<text x="90" y="280" fill="#8AA197" font-size="12">human gate</text>
<path d="M 181 267 L 199 267 L 199 278.25 Q 199 282.3 190 286.35 Q 181 282.3 181 278.25 Z" fill="#E0B24A" stroke="#9C7A1E" stroke-width="2" stroke-linejoin="round"/>
<text x="206" y="280" fill="#8AA197" font-size="12">Director-only gate</text>
<rect x="350" y="269" width="34" height="16" rx="8" fill="none" stroke="url(#flow)" stroke-width="3"/>
<text x="392" y="280" fill="#8AA197" font-size="12">emerald flow line</text>
</svg>